<?xml version="1.0" encoding="utf-8"?>
<!-- Generator: Adobe Illustrator 21.1.0, SVG Export Plug-In . SVG Version: 6.00 Build 0)  -->
<svg version="1.1" id="Layer_1" xmlns="http://www.w3.org/2000/svg" xmlns:xlink="http://www.w3.org/1999/xlink" x="0px" y="0px"
	 viewBox="0 0 166.9 171" style="enable-background:new 0 0 166.9 171;" xml:space="preserve">
<style type="text/css">
	.st0{fill:url(#SVGID_1_);}
	.st1{fill:url(#SVGID_2_);}
	.st2{fill:url(#SVGID_3_);}
	.st3{fill:url(#SVGID_4_);}
	.st4{fill:#0F395A;}
	.st5{fill:#28BAA8;}
	.st6{fill:#25AF9B;}
</style>
<g>
	<g>
		<linearGradient id="SVGID_1_" gradientUnits="userSpaceOnUse" x1="105.4456" y1="130.8067" x2="165.0658" y2="130.8067">
			<stop  offset="0.6513" style="stop-color:#EE3242"/>
			<stop  offset="1" style="stop-color:#E94897"/>
		</linearGradient>
		<path class="st0" d="M159,118.5h-53.6c3.9,5.2,8,10.8,12.3,16.7c1.9,2.6,1.7,5,1.2,6.5c-0.2,0.5-0.4,1-0.7,1.4H159
			c1.7,0,3.1-0.6,4.3-1.8c1.2-1.2,1.8-2.6,1.8-4.3v-12.5c0-1.7-0.6-3.1-1.8-4.3C162.1,119.1,160.7,118.5,159,118.5z"/>
		<linearGradient id="SVGID_2_" gradientUnits="userSpaceOnUse" x1="103.7879" y1="72.4424" x2="156.2666" y2="72.4424">
			<stop  offset="0.6513" style="stop-color:#EE3242"/>
			<stop  offset="1" style="stop-color:#E94897"/>
		</linearGradient>
		<path class="st1" d="M103.8,84.9h46.4c1.7,0,3.1-0.6,4.3-1.8c1.2-1.2,1.8-2.6,1.8-4.3V66.1c0-1.7-0.6-3.1-1.8-4.3
			c-1.2-1.2-2.6-1.8-4.3-1.8h-34.3c-1.2,7.1-3.8,13.5-7.5,19C107,81.1,105.5,83,103.8,84.9z"/>
		<linearGradient id="SVGID_3_" gradientUnits="userSpaceOnUse" x1="82.4714" y1="12.1249" x2="165.0658" y2="12.1249">
			<stop  offset="0.6513" style="stop-color:#EE3242"/>
			<stop  offset="1" style="stop-color:#E94897"/>
		</linearGradient>
		<path class="st2" d="M163.3,1.8C162.1,0.6,160.7,0,159,0H82.5c1.2,0.4,2.5,0.8,3.7,1.2c6.3,2.8,11.8,6.3,16.3,10.7
			c2.4,2.4,4.4,4.9,6.2,7.7c1,1.5,1.8,3,2.7,4.7H159c1.7,0,3.1-0.6,4.3-1.8c1.2-1.2,1.8-2.6,1.8-4.3V6.1
			C165.1,4.4,164.5,2.9,163.3,1.8z"/>
	</g>
	<linearGradient id="SVGID_4_" gradientUnits="userSpaceOnUse" x1="8.518124e-06" y1="71.5633" x2="116.8395" y2="71.5633">
		<stop  offset="0.2542" style="stop-color:#6ECACC"/>
		<stop  offset="0.3751" style="stop-color:#56C3BC"/>
		<stop  offset="0.5045" style="stop-color:#40BEB0"/>
		<stop  offset="0.6475" style="stop-color:#2FBBAA"/>
		<stop  offset="0.8292" style="stop-color:#28BAA8"/>
	</linearGradient>
	<path class="st3" d="M115.8,136.7c-4.7-6.5-9.2-12.7-13.6-18.5c-4.4-5.8-9-12-13.8-18.5c-1-1.3-1.4-2.6-1-4
		c0.4-1.4,1.3-2.4,2.7-3.2c6.6-3.7,12.1-8.6,16.2-14.9c5.3-7.8,8-17.3,8-28.3c0-7.2-1.2-13.8-3.5-19.9c-1.2-3-2.6-5.8-4.3-8.4
		s-3.7-5-5.9-7.2c-4.3-4.2-9.5-7.6-15.5-10.2C79.1,1.2,72.4,0,65.1,0h-59C4.4,0,2.9,0.6,1.8,1.8C0.6,2.9,0,4.4,0,6.1v131
		c0,1.7,0.6,3.1,1.8,4.3c1.2,1.2,2.6,1.8,4.3,1.8h10.6h4.8h72.2h6.1h13.6c1.7,0,2.8-0.7,3.2-2.1
		C117.1,139.5,116.8,138.1,115.8,136.7z"/>
	<g>
		<path class="st4" d="M4.1,170.6H1.9c-0.2,0-0.4-0.1-0.6-0.2c-0.2-0.2-0.2-0.4-0.2-0.6v-18.5c0-0.2,0.1-0.4,0.2-0.6
			c0.2-0.2,0.4-0.2,0.6-0.2h8.3c1,0,2,0.2,2.8,0.5c0.8,0.4,1.6,0.8,2.2,1.4c0.3,0.3,0.6,0.7,0.8,1c0.2,0.4,0.4,0.8,0.6,1.2
			c0.3,0.9,0.5,1.8,0.5,2.8c0,1.6-0.4,2.9-1.1,4c-0.6,0.9-1.4,1.6-2.3,2.1c-0.2,0.1-0.3,0.3-0.4,0.5c-0.1,0.2,0,0.4,0.1,0.6
			c0.7,0.9,1.3,1.8,1.9,2.6s1.3,1.7,1.9,2.6c0.1,0.2,0.2,0.4,0.1,0.6c-0.1,0.2-0.2,0.3-0.5,0.3h-2.8c-0.2,0-0.5-0.1-0.7-0.2
			c-0.3-0.1-0.5-0.3-0.6-0.5c-0.3-0.4-0.6-0.8-0.9-1.3c-0.3-0.4-0.6-0.8-0.9-1.3l-1.8-2.6c-0.1-0.2-0.3-0.4-0.6-0.5
			c-0.3-0.1-0.5-0.2-0.7-0.2H5.8c-0.2,0-0.4,0.1-0.6,0.2c-0.2,0.2-0.2,0.4-0.2,0.6v4.7c0,0.2-0.1,0.4-0.2,0.6
			C4.5,170.5,4.4,170.6,4.1,170.6z M5.8,160.7h4.5c0.3,0,0.7-0.1,1.1-0.2c0.4-0.1,0.7-0.4,1-0.6c0.3-0.3,0.5-0.6,0.7-1.1
			c0.2-0.4,0.3-0.9,0.3-1.5c0-0.3,0-0.7-0.1-1.1c0-0.2-0.1-0.4-0.2-0.6c-0.1-0.2-0.2-0.4-0.2-0.6c-0.2-0.4-0.5-0.7-0.9-0.9
			c-0.4-0.3-1-0.4-1.6-0.4H5.8c-0.2,0-0.4,0.1-0.6,0.2c-0.2,0.2-0.2,0.4-0.2,0.6v5.2c0,0.2,0.1,0.4,0.2,0.6
			C5.4,160.6,5.6,160.7,5.8,160.7z"/>
		<path class="st4" d="M24.8,154.6v3.3c0,0.2,0.1,0.4,0.2,0.6c0.2,0.2,0.4,0.2,0.6,0.2h8.1c0.2,0,0.4,0.1,0.6,0.2
			c0.2,0.2,0.2,0.4,0.2,0.6v1.8c0,0.2-0.1,0.4-0.2,0.6c-0.2,0.2-0.4,0.2-0.6,0.2h-8.1c-0.2,0-0.4,0.1-0.6,0.2
			c-0.2,0.2-0.2,0.4-0.2,0.6v3c0,0.2,0.1,0.4,0.2,0.6c0.2,0.2,0.4,0.2,0.6,0.2H35c0.2,0,0.4,0.1,0.6,0.2c0.2,0.2,0.2,0.4,0.2,0.6
			v1.8c0,0.2-0.1,0.4-0.2,0.6c-0.2,0.2-0.4,0.2-0.6,0.2H21.8c-0.2,0-0.4-0.1-0.6-0.2c-0.2-0.2-0.2-0.4-0.2-0.6v-18.5
			c0-0.2,0.1-0.4,0.2-0.6c0.2-0.2,0.4-0.2,0.6-0.2H35c0.2,0,0.4,0.1,0.6,0.2c0.2,0.2,0.2,0.4,0.2,0.6v1.7c0,0.2-0.1,0.4-0.2,0.6
			c-0.2,0.2-0.4,0.2-0.6,0.2h-9.3c-0.2,0-0.4,0.1-0.6,0.2C24.9,154.2,24.8,154.4,24.8,154.6z"/>
		<path class="st4" d="M52.4,151.2v11.8c0,1.2-0.2,2.3-0.5,3.2c-0.3,0.9-0.9,1.8-1.5,2.5c-0.7,0.7-1.5,1.3-2.4,1.6
			c-0.9,0.4-1.9,0.6-3.1,0.6c-1.6,0-3-0.4-4.1-1.1c-0.9-0.6-1.6-1.3-2.2-2.3c-0.1-0.2-0.1-0.4,0-0.6c0.1-0.2,0.2-0.4,0.4-0.5l2-0.9
			c0.2-0.1,0.4-0.1,0.6-0.1c0.2,0,0.3,0.1,0.4,0.2c0,0.1,0.1,0.1,0.1,0.2c0,0.1,0.1,0.1,0.1,0.2c0.2,0.3,0.4,0.5,0.7,0.7
			c0.2,0.2,0.5,0.4,0.9,0.5c0.3,0.1,0.7,0.2,1.2,0.2c0.8,0,1.4-0.2,1.9-0.5c0.5-0.3,0.8-0.7,1.1-1.2c0.1-0.2,0.2-0.5,0.3-0.7
			c0.1-0.2,0.2-0.5,0.2-0.7c0-0.3,0.1-0.5,0.1-0.7c0-0.2,0-0.4,0-0.6v-11.8c0-0.2,0.1-0.4,0.2-0.6c0.2-0.2,0.4-0.2,0.6-0.2h2.2
			c0.2,0,0.4,0.1,0.6,0.2C52.3,150.8,52.4,151,52.4,151.2z"/>
		<path class="st4" d="M60.6,154.6v3.3c0,0.2,0.1,0.4,0.2,0.6c0.2,0.2,0.4,0.2,0.6,0.2h8.1c0.2,0,0.4,0.1,0.6,0.2
			c0.2,0.2,0.2,0.4,0.2,0.6v1.8c0,0.2-0.1,0.4-0.2,0.6c-0.2,0.2-0.4,0.2-0.6,0.2h-8.1c-0.2,0-0.4,0.1-0.6,0.2
			c-0.2,0.2-0.2,0.4-0.2,0.6v3c0,0.2,0.1,0.4,0.2,0.6c0.2,0.2,0.4,0.2,0.6,0.2h9.3c0.2,0,0.4,0.1,0.6,0.2c0.2,0.2,0.2,0.4,0.2,0.6
			v1.8c0,0.2-0.1,0.4-0.2,0.6c-0.2,0.2-0.4,0.2-0.6,0.2H57.5c-0.2,0-0.4-0.1-0.6-0.2c-0.2-0.2-0.2-0.4-0.2-0.6v-18.5
			c0-0.2,0.1-0.4,0.2-0.6c0.2-0.2,0.4-0.2,0.6-0.2h13.2c0.2,0,0.4,0.1,0.6,0.2c0.2,0.2,0.2,0.4,0.2,0.6v1.7c0,0.2-0.1,0.4-0.2,0.6
			c-0.2,0.2-0.4,0.2-0.6,0.2h-9.3c-0.2,0-0.4,0.1-0.6,0.2C60.6,154.2,60.6,154.4,60.6,154.6z"/>
		<path class="st4" d="M75.2,167.3l1.2-1.7c0.1-0.2,0.3-0.3,0.5-0.4c0.2,0,0.4,0,0.6,0.1c0.8,0.5,1.6,1,2.4,1.3
			c1.1,0.5,2.2,0.8,3.4,0.8c0.6,0,1.2-0.1,1.7-0.2c0.4-0.1,0.8-0.3,1.2-0.6c0.3-0.3,0.6-0.5,0.7-0.9c0.2-0.3,0.2-0.6,0.2-0.9
			c0-0.4-0.1-0.7-0.4-1c-0.2-0.3-0.6-0.5-1-0.7c-0.2-0.1-0.4-0.2-0.7-0.2c-0.2-0.1-0.5-0.1-0.8-0.2c-0.3-0.1-0.6-0.1-0.8-0.2
			c-0.3-0.1-0.6-0.1-0.9-0.2c-0.2,0-0.4-0.1-0.7-0.1c-0.2,0-0.5-0.1-0.7-0.2c-0.5-0.1-1.1-0.2-1.7-0.4c-0.6-0.2-1.2-0.4-1.7-0.7
			c-0.6-0.3-1.1-0.6-1.5-1.1c-0.4-0.4-0.8-0.9-1.1-1.5c-0.3-0.6-0.4-1.3-0.4-2.1c0-1.2,0.2-2.1,0.7-3c0.5-0.8,1.1-1.4,1.8-1.9
			c0.7-0.4,1.5-0.7,2.5-0.9c0.9-0.2,1.8-0.3,2.7-0.3c0.8,0,1.6,0.1,2.3,0.2c0.3,0.1,0.6,0.1,1,0.2c0.3,0.1,0.6,0.2,0.9,0.3
			c0.3,0.1,0.6,0.2,0.9,0.4c0.3,0.1,0.5,0.3,0.8,0.4c0.2,0.1,0.4,0.2,0.5,0.3c0.2,0.1,0.3,0.2,0.6,0.3c0.2,0.1,0.3,0.3,0.4,0.6
			c0,0.2,0,0.4-0.2,0.6l-1.2,1.7c-0.1,0.2-0.3,0.3-0.6,0.4c-0.2,0-0.4,0-0.6-0.1c-0.7-0.5-1.4-0.8-2-1.1c-0.9-0.3-1.8-0.5-2.8-0.5
			c-0.2,0-0.3,0-0.5,0c-0.2,0-0.4,0-0.6,0.1c-0.4,0.1-0.8,0.2-1.2,0.4c-0.2,0.1-0.4,0.2-0.5,0.3c-0.2,0.1-0.3,0.2-0.4,0.4
			c-0.2,0.3-0.4,0.6-0.4,1.1c0,0.4,0.1,0.7,0.4,1c0.3,0.3,0.7,0.5,1.1,0.7c0.2,0.1,0.5,0.2,0.7,0.2c0.2,0.1,0.5,0.1,0.8,0.2
			c0.3,0.1,0.5,0.1,0.8,0.2c0.3,0.1,0.5,0.1,0.8,0.2c0.2,0,0.4,0.1,0.6,0.1c0.2,0.1,0.5,0.1,0.7,0.1c0.3,0,0.5,0.1,0.8,0.2
			c0.3,0.1,0.6,0.1,0.8,0.2c0.1,0,0.3,0.1,0.5,0.1c0.2,0.1,0.3,0.1,0.5,0.2c0.2,0.1,0.5,0.2,0.8,0.4c0.3,0.1,0.5,0.3,0.7,0.4
			c0.1,0.1,0.3,0.2,0.4,0.3c0.1,0.1,0.2,0.2,0.3,0.3c0.5,0.5,0.8,1,1.1,1.6c0.3,0.6,0.4,1.4,0.4,2.3c0,1-0.2,1.9-0.6,2.7
			c-0.4,0.8-0.9,1.4-1.6,1.9c-0.7,0.5-1.5,0.9-2.4,1.2c-1,0.3-2,0.4-3.1,0.4c-1.1,0-2-0.1-2.8-0.2c-0.8-0.1-1.5-0.3-2.2-0.6
			c-0.3-0.1-0.7-0.3-1-0.4c-0.3-0.2-0.6-0.3-0.9-0.5c-0.2-0.1-0.4-0.2-0.6-0.3c-0.2-0.1-0.4-0.3-0.6-0.4c-0.2-0.1-0.3-0.3-0.4-0.5
			C75.1,167.7,75.1,167.5,75.2,167.3z"/>
		<path class="st4" d="M106.3,153.8h-4.1c-0.2,0-0.4,0.1-0.6,0.2c-0.2,0.2-0.2,0.4-0.2,0.6v15.1c0,0.2-0.1,0.4-0.2,0.6
			c-0.2,0.2-0.4,0.2-0.6,0.2h-2.2c-0.2,0-0.4-0.1-0.6-0.2c-0.2-0.2-0.2-0.4-0.2-0.6v-15.1c0-0.2-0.1-0.4-0.2-0.6
			c-0.2-0.2-0.4-0.2-0.6-0.2h-4.1c-0.2,0-0.4-0.1-0.6-0.2c-0.2-0.2-0.2-0.4-0.2-0.6v-1.7c0-0.2,0.1-0.4,0.2-0.6
			c0.2-0.2,0.4-0.2,0.6-0.2h13.7c0.2,0,0.4,0.1,0.6,0.2c0.2,0.2,0.2,0.4,0.2,0.6v1.7c0,0.2-0.1,0.4-0.2,0.6
			C106.8,153.7,106.6,153.8,106.3,153.8z"/>
		<path class="st4" d="M112.9,170.6h-2.2c-0.2,0-0.4-0.1-0.6-0.2c-0.2-0.2-0.2-0.4-0.2-0.6v-18.5c0-0.2,0.1-0.4,0.2-0.6
			c0.2-0.2,0.4-0.2,0.6-0.2h8.3c1,0,2,0.2,2.8,0.5c0.8,0.4,1.6,0.8,2.2,1.4c0.3,0.3,0.6,0.7,0.8,1c0.2,0.4,0.4,0.8,0.6,1.2
			c0.3,0.9,0.5,1.8,0.5,2.8c0,1.6-0.4,2.9-1.1,4c-0.6,0.9-1.4,1.6-2.3,2.1c-0.2,0.1-0.3,0.3-0.4,0.5c-0.1,0.2,0,0.4,0.1,0.6
			c0.7,0.9,1.3,1.8,1.9,2.6c0.6,0.8,1.3,1.7,1.9,2.6c0.1,0.2,0.2,0.4,0.1,0.6c-0.1,0.2-0.2,0.3-0.5,0.3h-2.8c-0.2,0-0.5-0.1-0.7-0.2
			c-0.3-0.1-0.5-0.3-0.6-0.5c-0.3-0.4-0.6-0.8-0.9-1.3c-0.3-0.4-0.6-0.8-0.9-1.3l-1.8-2.6c-0.1-0.2-0.3-0.4-0.6-0.5
			c-0.3-0.1-0.5-0.2-0.7-0.2h-2.1c-0.2,0-0.4,0.1-0.6,0.2c-0.2,0.2-0.2,0.4-0.2,0.6v4.7c0,0.2-0.1,0.4-0.2,0.6
			C113.3,170.5,113.1,170.6,112.9,170.6z M114.6,160.7h4.5c0.3,0,0.7-0.1,1.1-0.2c0.4-0.1,0.7-0.4,1-0.6c0.3-0.3,0.5-0.6,0.7-1.1
			c0.2-0.4,0.3-0.9,0.3-1.5c0-0.3,0-0.7-0.1-1.1c0-0.2-0.1-0.4-0.2-0.6c-0.1-0.2-0.2-0.4-0.2-0.6c-0.2-0.4-0.5-0.7-0.9-0.9
			c-0.4-0.3-1-0.4-1.6-0.4h-4.5c-0.2,0-0.4,0.1-0.6,0.2c-0.2,0.2-0.2,0.4-0.2,0.6v5.2c0,0.2,0.1,0.4,0.2,0.6
			C114.1,160.6,114.3,160.7,114.6,160.7z"/>
		<path class="st5" d="M134.8,168.8c0,0.6-0.2,1.1-0.6,1.5c-0.4,0.4-0.9,0.6-1.5,0.6c-0.6,0-1-0.2-1.4-0.6c-0.4-0.4-0.6-0.9-0.6-1.5
			c0-0.6,0.2-1,0.6-1.4c0.4-0.4,0.9-0.6,1.4-0.6c0.6,0,1.1,0.2,1.5,0.6C134.6,167.7,134.8,168.2,134.8,168.8z"/>
		<path class="st5" d="M141.1,170.6h-2.2c-0.2,0-0.4-0.1-0.6-0.2c-0.2-0.2-0.2-0.4-0.2-0.6v-18.5c0-0.2,0.1-0.4,0.2-0.6
			c0.2-0.2,0.4-0.2,0.6-0.2h2.2c0.2,0,0.4,0.1,0.6,0.2c0.2,0.2,0.2,0.4,0.2,0.6v18.5c0,0.2-0.1,0.4-0.2,0.6
			C141.5,170.5,141.3,170.6,141.1,170.6z"/>
		<path class="st5" d="M156.4,171c-1.4,0-2.8-0.3-4.1-0.8c-1.3-0.6-2.4-1.3-3.3-2.3c-0.9-0.9-1.7-2.1-2.3-3.3
			c-0.6-1.3-0.8-2.6-0.8-4.1c0-1.4,0.3-2.8,0.8-4.1c0.6-1.3,1.3-2.4,2.3-3.3c0.9-0.9,2.1-1.7,3.3-2.3c1.3-0.6,2.6-0.8,4.1-0.8
			c1.5,0,2.8,0.3,4.1,0.8c1.3,0.6,2.4,1.3,3.3,2.3c0.9,0.9,1.7,2.1,2.3,3.3c0.6,1.3,0.8,2.6,0.8,4.1c0,1.5-0.3,2.8-0.8,4.1
			c-0.6,1.3-1.3,2.4-2.3,3.3c-0.9,0.9-2.1,1.7-3.3,2.3C159.2,170.7,157.8,171,156.4,171z M156.4,153.6c-0.9,0-1.8,0.2-2.6,0.6
			c-0.8,0.4-1.5,0.9-2.1,1.5s-1.1,1.4-1.4,2.2c-0.3,0.8-0.5,1.7-0.5,2.6c0,0.9,0.2,1.8,0.5,2.6c0.4,0.8,0.8,1.6,1.4,2.2
			c0.6,0.6,1.3,1.1,2.1,1.5c0.8,0.4,1.7,0.6,2.6,0.6c0.9,0,1.8-0.2,2.6-0.6c0.8-0.4,1.5-0.9,2.1-1.5c0.6-0.6,1.1-1.4,1.4-2.2
			c0.4-0.8,0.5-1.7,0.5-2.6c0-0.9-0.2-1.8-0.5-2.6c-0.3-0.8-0.8-1.6-1.4-2.2s-1.3-1.1-2.1-1.5C158.2,153.8,157.3,153.6,156.4,153.6z
			"/>
	</g>
	<path class="st6" d="M116.6,141c0.5-1.4,0.2-2.9-0.9-4.3c-4.6-6.4-9.1-12.5-13.4-18.2H33.4c-1.7,0-3.1-0.6-4.3-1.8
		c-1.2-1.2-1.8-2.6-1.8-4.3V90.9c0-1.7,0.6-3.1,1.8-4.3c1.2-1.2,2.6-1.8,4.3-1.8h66.9c2.2-2.2,4.3-4.6,6-7.2
		c3.5-5.2,5.9-11,7.1-17.6h-80c-1.7,0-3.1-0.6-4.3-1.8c-1.2-1.2-1.8-2.6-1.8-4.3V30.3c0-1.7,0.6-3.1,1.8-4.3
		c1.2-1.2,2.6-1.8,4.3-1.8h75c-0.6-1.1-1.2-2.3-1.9-3.3c-1.7-2.6-3.7-5-5.9-7.2c-4.3-4.2-9.5-7.6-15.5-10.2C79.1,1.2,72.4,0,65.1,0
		h-59C5,0,4,0.3,3.2,0.7C2.9,0.9,2.7,1,2.5,1.1C2.3,1.3,2,1.5,1.8,1.8C0.6,2.9,0,4.4,0,6.1v131c0,1.7,0.6,3.1,1.8,4.3
		c1.2,1.2,2.6,1.8,4.3,1.8h10.6h4.8h72.2h6.1h13.6C115.1,143.1,116.2,142.4,116.6,141z"/>
</g>
</svg>
